<svg width="139" height="27" viewBox="0 0 139 27" fill="none" xmlns="http://www.w3.org/2000/svg">
<path d="M27 13.5C27 20.9558 20.9558 27 13.5 27C6.04416 27 0 20.9558 0 13.5C0 6.04416 6.04416 0 13.5 0C20.9558 0 27 6.04416 27 13.5Z" fill="#F9F21D"/>
<path d="M138.161 21.1883C137.864 21.1883 137.545 21.097 137.202 20.9144C136.86 20.7318 136.609 20.5093 136.449 20.2468C136.289 19.973 136.112 19.5508 135.918 18.9802C135.736 18.3982 135.593 17.976 135.49 17.7135C135.388 17.7021 135.279 17.6964 135.165 17.6964C133.385 17.6964 130.509 18.6492 126.538 20.555C126.036 20.7946 125.705 20.9144 125.545 20.9144C125.214 20.9144 124.884 20.7318 124.553 20.3667C124.222 19.9901 124.056 19.6363 124.056 19.3054C124.056 19.0544 124.775 17.394 126.213 14.3243C127.48 11.6312 128.324 9.87958 128.746 9.06937C129.842 6.99249 130.823 5.95405 131.69 5.95405H131.81C132.666 5.95405 133.608 7.16366 134.635 9.58288C135.251 11.0435 136.015 12.9321 136.928 15.2486C138.184 18.4438 138.811 20.2297 138.811 20.6063C138.811 20.9943 138.594 21.1883 138.161 21.1883ZM134.635 15.6766C133.642 12.5499 132.911 10.7868 132.444 10.3874C132.25 10.2276 132.061 10.1477 131.879 10.1477C131.103 10.1477 129.853 12.4928 128.13 17.1829C129.134 16.7607 130.201 16.4411 131.331 16.2243C131.525 16.1901 132.01 16.1102 132.786 15.9847L134.635 15.6766Z" fill="black"/>
<path d="M117.138 13.5541C117.605 13.9306 117.839 14.2901 117.839 14.6324C117.839 14.9291 117.6 15.0775 117.12 15.0775C117.109 15.8535 117.103 17.4396 117.103 19.836C117.103 20.7147 116.858 21.1541 116.367 21.1541C116.048 21.1541 115.734 21 115.426 20.6919C115.118 20.3838 114.941 20.07 114.895 19.7505C114.815 19.0886 114.73 17.5595 114.638 15.1631C112.995 15.3228 110.724 15.7222 107.826 16.3613V20.0414C107.826 20.9201 107.581 21.3595 107.09 21.3595C106.77 21.3595 106.451 21.2054 106.131 20.8973C105.823 20.5892 105.646 20.2754 105.601 19.9559C105.555 19.6363 105.492 18.5009 105.412 16.5495C104.614 16.0589 104.214 15.5054 104.214 14.8892C104.214 14.6381 104.34 14.4384 104.591 14.2901C104.91 14.2216 105.15 14.1646 105.31 14.1189C105.275 13.012 105.258 11.9108 105.258 10.8153C105.258 8.64715 105.35 7.41471 105.532 7.11802C105.681 6.87838 105.914 6.64444 106.234 6.41622C106.553 6.17658 106.839 6.05676 107.09 6.05676C107.569 6.05676 107.826 6.47327 107.86 7.30631C107.894 8.23063 107.906 9.28619 107.894 10.473L107.86 13.6739C110.005 13.3544 112.242 13.1604 114.57 13.0919C114.547 12.2703 114.536 11.4715 114.536 10.6955C114.536 8.47027 114.633 7.20931 114.827 6.91261C115.295 6.19369 115.814 5.83423 116.384 5.83423C116.544 5.83423 116.681 5.87417 116.795 5.95405C117.046 6.12523 117.172 6.6958 117.172 7.66576V9.58288C117.172 9.76546 117.16 11.0892 117.138 13.5541Z" fill="black"/>
<path d="M93.619 8.72703C93.5848 10.0393 93.5163 11.6655 93.4136 13.6054L93.3794 14.4441C93.3566 14.9348 93.3109 15.882 93.2425 17.2856L93.1227 20.1955C93.0884 21.0628 92.8374 21.4964 92.3695 21.4964C92.05 21.4964 91.7362 21.3538 91.4281 21.0685C91.1199 20.7832 90.9488 20.4751 90.9145 20.1441C90.8575 19.642 90.829 18.3982 90.829 16.4126C90.829 13.2631 90.8917 10.8781 91.0172 9.25766C89.3968 9.61141 88.1073 9.99369 87.1488 10.4045C87.0461 10.4502 86.932 10.473 86.8064 10.473C86.3842 10.473 85.9734 10.279 85.574 9.89099C85.186 9.503 84.992 9.1036 84.992 8.69279C84.992 8.29339 85.4028 7.96817 86.2244 7.71712C86.5326 7.63724 87.086 7.48889 87.8848 7.27207C89.1743 6.91832 90.1329 6.67868 90.7605 6.55315C92.1641 6.25646 93.4593 6.00541 94.6461 5.8C95.7416 5.60601 96.3521 5.50901 96.4776 5.50901C96.9112 5.50901 97.3506 5.73153 97.7956 6.17658C98.2521 6.61021 98.4803 7.04384 98.4803 7.47748C98.4803 7.58018 98.4632 7.66006 98.429 7.71712C98.3263 7.94534 98.0296 8.08799 97.5389 8.14504C96.9112 8.21351 95.6046 8.40751 93.619 8.72703Z" fill="black"/>
<path d="M78.122 20.2468C75.9196 20.2468 73.4034 20.8117 70.5734 21.9414C70.5049 22.0099 70.425 22.0441 70.3337 22.0441C69.9686 22.0441 69.6148 21.8273 69.2725 21.3937C68.9301 20.9601 68.759 20.5607 68.759 20.1955C68.759 19.9787 68.8274 19.7961 68.9644 19.6477C69.9572 19.2483 71.007 18.9117 72.1139 18.6378C72.034 16.618 71.9941 14.9976 71.9941 13.7766C71.9941 11.9622 72.0626 10.3246 72.1995 8.86396C71.4578 9.12643 70.7559 9.38318 70.0941 9.63423C70.0028 9.7027 69.8944 9.73694 69.7689 9.73694C69.3695 9.73694 68.953 9.53724 68.5193 9.13784C68.0971 8.72703 67.886 8.32763 67.886 7.93964C67.886 7.71141 67.9716 7.51742 68.1427 7.35766C69.8545 6.68438 71.2923 6.2051 72.4563 5.91982C74.7956 5.33784 76.3076 5.04685 76.9923 5.04685C77.4373 5.04685 77.8824 5.26937 78.3274 5.71441C78.7839 6.14805 79.0121 6.58168 79.0121 7.01532C79.0121 7.10661 79.0064 7.18078 78.995 7.23784C78.9151 7.40901 78.7896 7.52312 78.6184 7.58018C78.5499 7.603 78.3788 7.63153 78.1049 7.66576C76.7926 7.83694 75.6857 8.01381 74.7842 8.1964C74.6701 10.4216 74.5388 13.7538 74.3905 18.1928C75.874 17.9646 76.8782 17.8505 77.4031 17.8505C77.8025 17.8505 78.1962 18.0673 78.5842 18.5009C78.9836 18.9345 79.1833 19.3511 79.1833 19.7505C79.1833 20.0357 79.0578 20.2012 78.8067 20.2468H78.122Z" fill="black"/>
<path d="M60.9479 15.6081C60.9479 16.3841 60.6055 17.1315 59.9208 17.8505C58.9509 18.8775 57.707 19.6934 56.1893 20.2982C54.7287 20.8916 53.268 21.1883 51.8073 21.1883C50.7575 21.1883 49.8902 20.9772 49.2055 20.555C48.8974 20.361 48.5893 20.0414 48.2812 19.5964C47.9845 19.1399 47.8362 18.7405 47.8362 18.3982C47.8362 18.0444 48.0872 17.8676 48.5893 17.8676C49.0686 17.8676 49.7704 17.9589 50.6947 18.1414C51.6305 18.324 52.338 18.4153 52.8172 18.4153C54.5632 18.4153 56.0695 17.7877 57.3362 16.5324C57.4959 16.3727 57.5758 16.2414 57.5758 16.1387C57.5758 15.8649 56.9824 15.6652 55.7956 15.5396C55.1224 15.4712 54.392 15.4369 53.6046 15.4369C53.1938 15.4369 52.5776 15.4541 51.756 15.4883C50.9458 15.5225 50.3353 15.5396 49.9245 15.5396C49.1941 15.5396 48.5722 15.3114 48.0587 14.855C47.5566 14.3871 47.3055 13.7937 47.3055 13.0748C47.3055 12.0021 47.9503 10.8267 49.2398 9.54865C50.2212 8.57868 51.3338 7.73994 52.5776 7.03243C53.9926 6.23363 55.1851 5.83423 56.1551 5.83423C56.9995 5.83423 57.7013 6.11952 58.2605 6.69009C58.8311 7.26066 59.1163 7.96817 59.1163 8.81261C59.1163 9.74835 58.7968 10.2162 58.1578 10.2162C57.941 10.2162 57.747 10.0736 57.5758 9.78829C57.5416 9.74264 57.4275 9.503 57.2335 9.06937C57.0509 8.79549 56.7599 8.65856 56.3605 8.65856C55.5959 8.65856 54.5803 9.04655 53.3136 9.82252C52.1497 10.5414 51.3052 11.2489 50.7803 11.945C50.5863 12.2075 50.4893 12.3787 50.4893 12.4586C50.4893 12.721 51.2482 12.8523 52.7659 12.8523C53.2109 12.8523 53.8728 12.8294 54.7515 12.7838C55.6416 12.7267 56.3091 12.6982 56.7542 12.6982C59.55 12.6982 60.9479 13.6682 60.9479 15.6081Z" fill="black"/>
<path d="M41.257 21.1883C40.9603 21.1883 40.6408 21.097 40.2985 20.9144C39.9561 20.7318 39.7051 20.5093 39.5453 20.2468C39.3856 19.973 39.2087 19.5508 39.0147 18.9802C38.8321 18.3982 38.6895 17.976 38.5868 17.7135C38.484 17.7021 38.3756 17.6964 38.2615 17.6964C36.4813 17.6964 33.6057 18.6492 29.6345 20.555C29.1324 20.7946 28.8015 20.9144 28.6417 20.9144C28.3108 20.9144 27.9798 20.7318 27.6489 20.3667C27.318 19.9901 27.1525 19.6363 27.1525 19.3054C27.1525 19.0544 27.8714 17.394 29.3093 14.3243C30.5759 11.6312 31.4204 9.87958 31.8426 9.06937C32.9381 6.99249 33.9195 5.95405 34.7868 5.95405H34.9066C35.7624 5.95405 36.7039 7.16366 37.7309 9.58288C38.3471 11.0435 39.1117 12.9321 40.0246 15.2486C41.2798 18.4438 41.9075 20.2297 41.9075 20.6063C41.9075 20.9943 41.6907 21.1883 41.257 21.1883ZM37.7309 15.6766C36.7381 12.5499 36.0078 10.7868 35.5399 10.3874C35.3459 10.2276 35.1576 10.1477 34.975 10.1477C34.1991 10.1477 32.9495 12.4928 31.2264 17.1829C32.2306 16.7607 33.2976 16.4411 34.4273 16.2243C34.6213 16.1901 35.1063 16.1102 35.8822 15.9847L37.7309 15.6766Z" fill="black"/>
<path d="M21.5667 15.6081C21.5667 16.3841 21.2243 17.1315 20.5396 17.8505C19.5697 18.8775 18.3258 19.6934 16.8081 20.2982C15.3474 20.8916 13.8868 21.1883 12.4261 21.1883C11.3763 21.1883 10.509 20.9772 9.82432 20.555C9.51622 20.361 9.20811 20.0414 8.9 19.5964C8.6033 19.1399 8.45496 18.7405 8.45496 18.3982C8.45496 18.0444 8.70601 17.8676 9.20811 17.8676C9.68739 17.8676 10.3892 17.9589 11.3135 18.1414C12.2492 18.324 12.9568 18.4153 13.436 18.4153C15.182 18.4153 16.6883 17.7877 17.955 16.5324C18.1147 16.3727 18.1946 16.2414 18.1946 16.1387C18.1946 15.8649 17.6012 15.6652 16.4144 15.5396C15.7411 15.4712 15.0108 15.4369 14.2234 15.4369C13.8126 15.4369 13.1964 15.4541 12.3748 15.4883C11.5646 15.5225 10.9541 15.5396 10.5432 15.5396C9.81291 15.5396 9.19099 15.3114 8.67748 14.855C8.17538 14.3871 7.92432 13.7937 7.92432 13.0748C7.92432 12.0021 8.56907 10.8267 9.85856 9.54865C10.8399 8.57868 11.9526 7.73994 13.1964 7.03243C14.6114 6.23363 15.8039 5.83423 16.7739 5.83423C17.6183 5.83423 18.3201 6.11952 18.8793 6.69009C19.4499 7.26066 19.7351 7.96817 19.7351 8.81261C19.7351 9.74835 19.4156 10.2162 18.7766 10.2162C18.5598 10.2162 18.3658 10.0736 18.1946 9.78829C18.1604 9.74264 18.0462 9.503 17.8523 9.06937C17.6697 8.79549 17.3787 8.65856 16.9793 8.65856C16.2147 8.65856 15.1991 9.04655 13.9324 9.82252C12.7685 10.5414 11.924 11.2489 11.3991 11.945C11.2051 12.2075 11.1081 12.3787 11.1081 12.4586C11.1081 12.721 11.867 12.8523 13.3847 12.8523C13.8297 12.8523 14.4916 12.8294 15.3703 12.7838C16.2604 12.7267 16.9279 12.6982 17.373 12.6982C20.1688 12.6982 21.5667 13.6682 21.5667 15.6081Z" fill="black"/>
</svg>
